# xmcd
#
# Track frame offsets: 
#        150
#        12640
#        22657
#        33142
#        47565
#        59217
#        73028
#        85942
#        96806
#        111787
#        121628
#        133729
#        145422
#        158355
#        170190
#        183120
#        197026
#        209197
#        223296
#        237407
#        251313
#        260756
#        272756
#        285251
#        296467
#
# Disc length: 4195 seconds
#
# Revision: 2
# Processed by: cddbd v1.5.2PL0 Copyright (c) Steve Scherf et al.
# Submitted via: ExactAudioCopyFreeDBPlugin 1.0
#
DISCID=77106119
DTITLE=Willie Dixon - Everything Blues:  The Singer, The Writer, The P
DTITLE=roducer 1954-1962
DYEAR=2018
DGENRE=Blues
TTITLE0=Wang Dang Doodle
TTITLE1=So Long
TTITLE2=Violent Love (as "The Big Three Trio")
TTITLE3=Alone
TTITLE4=Wrinkles (as "The Lucky Three Trio")
TTITLE5=Walking the Blues
TTITLE6=Crazy for My Baby
TTITLE7=I Am the Lover Man
TTITLE8=The Pain in My Heart
TTITLE9=29 Ways
TTITLE10=Firey Love
TTITLE11=All the Time
TTITLE12=Back Home in Indiana (as "The Lucky Three Trio")
TTITLE13=Wrinkles (as "The Lucky Three Trio")
TTITLE14=Muddy Waters - I Just Want to Make Love to You
TTITLE15=Muddy Waters - I'm Ready
TTITLE16=Little Walter - My Babe
TTITLE17=Otis Rush - I Can't Quit You Baby
TTITLE18=Otis Rush - My Love Will Never Die
TTITLE19=Otis Rush - Groaning the Blues
TTITLE20=Betty Everett - Tell Me, Darling
TTITLE21=Charles Clarke - Hidden Charms
TTITLE22=Howlin' Wolf - Spoonful
TTITLE23=Howlin' Wolf - The Red Rooster
TTITLE24=Howlin' Wolf - Going Down Slow
EXTD=
EXTT0=
EXTT1=
EXTT2=Big Three Trio
EXTT3=Willie Dixon&the Allstars
EXTT4=Willie Dixon&the Allstars
EXTT5=Willie Dixon&the Allstars
EXTT6=Willie Dixon&the Allstars
EXTT7=Willie Dixon&the Allstars
EXTT8=Willie Dixon&the Allstars
EXTT9=Willie Dixon&the Allstars
EXTT10=Willie Dixon&the Allstars
EXTT11=Willie Dixon&the Allstars
EXTT12=Lucky Three Trio
EXTT13=Lucky Three Trio
EXTT14=Muddy Waters
EXTT15=Muddy Waters
EXTT16=Little Walter
EXTT17=Otis Rush
EXTT18=Otis Rush
EXTT19=Otis Rush
EXTT20=Betty Everett&the Willie Dixon Band
EXTT21=Charles Clarke&the Willie Dixon Band
EXTT22=Howlin' Wolf
EXTT23=Howlin' Wolf
EXTT24=Howlin' Wolf
PLAYORDER=
